<svg xmlns="http://www.w3.org/2000/svg" width="20.263" height="20.263" viewBox="0 0 20.263 20.263">
  <path id="Linkedin" d="M10.527,10.061H14.29v1.874a4.317,4.317,0,0,1,4.02-2.047c4,0,4.953,2.146,4.953,6.083v7.292H19.21v-6.4c0-2.242-.542-3.507-1.922-3.507-1.914,0-2.709,1.363-2.709,3.506v6.4H10.527v-13.2ZM3.577,23.091H7.63V9.888H3.577v13.2ZM8.211,5.584a2.563,2.563,0,0,1-.763,1.826A2.6,2.6,0,0,1,3,5.584a2.567,2.567,0,0,1,.763-1.827,2.621,2.621,0,0,1,3.685,0A2.572,2.572,0,0,1,8.211,5.584Z" transform="translate(-3 -3)" fill="#666"/>
</svg>
