<svg xmlns="http://www.w3.org/2000/svg" xmlns:xlink="http://www.w3.org/1999/xlink" width="157.015" height="69.879" viewBox="0 0 157.015 69.879">
  <defs>
    <linearGradient id="linear-gradient" y1="0.5" x2="1" y2="0.5" gradientUnits="objectBoundingBox">
      <stop offset="0" stop-color="#0b0146"/>
      <stop offset="1" stop-color="#4fa0ca"/>
    </linearGradient>
    <linearGradient id="linear-gradient-2" x1="0.826" y1="0.797" x2="0.236" y2="-0.094" gradientUnits="objectBoundingBox">
      <stop offset="0" stop-color="#fd1717"/>
      <stop offset="1" stop-color="#fea621"/>
    </linearGradient>
    <linearGradient id="linear-gradient-3" x1="0.799" y1="0.116" x2="0.054" y2="0.76" gradientUnits="objectBoundingBox">
      <stop offset="0" stop-color="#271f21"/>
      <stop offset="1" stop-color="#635b5b"/>
    </linearGradient>
  </defs>
  <g id="Logo" transform="translate(-52.229 -48.931)">
    <g id="Group_60" data-name="Group 60" transform="translate(52.229 48.931)">
      <g id="Group_56" data-name="Group 56">
        <g id="Group_54" data-name="Group 54" transform="translate(68.773 6.405)">
          <circle id="Ellipse_4" data-name="Ellipse 4" cx="5.126" cy="5.126" r="5.126" fill="none" stroke="#635b5b" stroke-width="1"/>
          <g id="Group_53" data-name="Group 53" transform="translate(3.497 2.796)">
            <path id="Path_106" data-name="Path 106" d="M6133.519,7297.708l-1.062-2.07h-1.117v2.07h-.5v-4.661h1.788a1.261,1.261,0,0,1,1.382,1.3,1.21,1.21,0,0,1-1.016,1.252l1.108,2.113Zm-.938-4.215h-1.241v1.708h1.241a.857.857,0,1,0,0-1.708Z" transform="translate(-6130.84 -7293.047)" fill="#635b5b" stroke="#635b5b" stroke-width="0.5"/>
          </g>
        </g>
        <g id="Group_55" data-name="Group 55">
          <path id="Path_107" data-name="Path 107" d="M6153.139,7299.9a.442.442,0,0,0-.185.247c-.242.706-.432,1.432-.733,2.11a10.777,10.777,0,0,1-3.649,4.6c-2.121,1.476-4.273,2.909-6.414,4.353q-5.292,3.573-10.587,7.137c-1.105.746-2.206,1.5-3.309,2.247a29.856,29.856,0,0,1-4.13,2.5,11.654,11.654,0,0,1-6.921.981,12.248,12.248,0,0,1-10.271-12.751c.006-.126,0-.252,0-.381l-.106-.032c-.107.142-.217.282-.321.426q-4.255,5.865-8.513,11.73a9.935,9.935,0,0,0-1.853,5.959,10.273,10.273,0,0,0,1.43,5.3,9.806,9.806,0,0,0,3.272,3.485,34.311,34.311,0,0,0,8.2,3.688,33.41,33.41,0,0,0,8.324,1.435,35.705,35.705,0,0,0,6.9-.331,35.021,35.021,0,0,0,9.8-2.977,34.361,34.361,0,0,0,8.316-5.525,34.85,34.85,0,0,0,10.208-15.951,33.358,33.358,0,0,0,1.446-8.286,34.485,34.485,0,0,0-.5-8.039C6153.414,7301.186,6153.273,7300.546,6153.139,7299.9Z" transform="translate(-6084.217 -7273.096)" fill="url(#linear-gradient)"/>
          <path id="Path_108" data-name="Path 108" d="M6101.989,7288.413a11.878,11.878,0,0,1,7.775,4.4c.957,1.189,1.8,2.464,2.7,3.7q6.971,9.552,13.949,19.1a12.192,12.192,0,0,1,2.382,6.768,11.871,11.871,0,0,1-1.075,5.505c-.037.082-.057.169-.12.357.195-.115.3-.173.408-.243q1.3-.875,2.6-1.756,7.1-4.794,14.2-9.581a8.8,8.8,0,0,0,2.061-1.945,10.576,10.576,0,0,0,2.216-7.772,6.477,6.477,0,0,0-.363-1.722,31.255,31.255,0,0,0-2.838-5.338,34.849,34.849,0,0,0-6.827-7.722,34.406,34.406,0,0,0-16.051-7.565,51.056,51.056,0,0,0-6.157-.6,28.992,28.992,0,0,0-6.559.532,33.638,33.638,0,0,0-7.71,2.341c-.9.4-1.774.845-2.66,1.27l.03.074C6100.63,7288.286,6101.313,7288.314,6101.989,7288.413Z" transform="translate(-6081.639 -7283.979)" fill="url(#linear-gradient-2)"/>
          <path id="Path_109" data-name="Path 109" d="M6089.06,7314.439c.068-.645.13-1.287.2-1.929a34.405,34.405,0,0,1,2.7-10.019,34.764,34.764,0,0,1,4.731-7.812,33.32,33.32,0,0,1,6.218-6.028,6.29,6.29,0,0,1,2.692-.977,10.393,10.393,0,0,1,9.873,3.184,31.564,31.564,0,0,1,2.505,3.3c1.6,2.193,3.18,4.4,4.782,6.6a.519.519,0,0,1,0,.727q-7.422,10.2-14.833,20.417-3.242,4.463-6.479,8.93a10.764,10.764,0,0,0-1.916,5.071,11.975,11.975,0,0,0,.706,5.987,2.917,2.917,0,0,1,.069.328c-.16-.137-.249-.211-.333-.288a34.721,34.721,0,0,1-7.638-10.532,34.234,34.234,0,0,1-3.007-10.3c-.1-.819-.184-1.643-.273-2.464Z" transform="translate(-6089.06 -7281.595)" fill="url(#linear-gradient-3)"/>
        </g>
      </g>
      <g id="Group_59" data-name="Group 59" transform="translate(81.456 14.753)">
        <g id="Group_57" data-name="Group 57" transform="translate(0.407 34.567)">
          <path id="Path_110" data-name="Path 110" d="M6139.748,7316.065h-.872l-.349,1.753h-.838l.908-4.52h1.606a1.121,1.121,0,0,1,1.211,1.194A1.56,1.56,0,0,1,6139.748,7316.065Zm.316-2.023h-.774l-.259,1.282h.749a.757.757,0,0,0,.792-.761A.464.464,0,0,0,6140.064,7314.042Z" transform="translate(-6137.689 -7313.262)" fill="#635b5b"/>
          <path id="Path_111" data-name="Path 111" d="M6142.687,7315.926h-1.979a1.362,1.362,0,0,0-.025.236.509.509,0,0,0,.563.551,1.071,1.071,0,0,0,.788-.335l.412.52a1.853,1.853,0,0,1-1.286.482,1.114,1.114,0,0,1-1.226-1.161c0-1.111.539-2.223,1.682-2.223a1.111,1.111,0,0,1,1.174,1.181A3.623,3.623,0,0,1,6142.687,7315.926Zm-1.117-1.283c-.335,0-.615.218-.761.756h1.211a1.237,1.237,0,0,0,.02-.221C6142.041,7314.83,6141.85,7314.643,6141.57,7314.643Z" transform="translate(-6136.157 -7312.785)" fill="#635b5b"/>
          <path id="Path_112" data-name="Path 112" d="M6144.637,7315.686a2.26,2.26,0,0,1-.59,1.312,1.426,1.426,0,0,1-1.015.383,1.047,1.047,0,0,1-1.124-1.092,3.142,3.142,0,0,1,.07-.6,2.223,2.223,0,0,1,.589-1.308,1.421,1.421,0,0,1,1.015-.381,1.046,1.046,0,0,1,1.118,1.092A3.893,3.893,0,0,1,6144.637,7315.686Zm-1.136-.984a.576.576,0,0,0-.407.165,1.535,1.535,0,0,0-.335.819,2.8,2.8,0,0,0-.071.514c0,.318.171.477.419.477a.57.57,0,0,0,.406-.165,1.491,1.491,0,0,0,.336-.826,2.777,2.777,0,0,0,.07-.507C6143.92,7314.853,6143.749,7314.7,6143.5,7314.7Z" transform="translate(-6134.807 -7312.785)" fill="#635b5b"/>
          <path id="Path_113" data-name="Path 113" d="M6146.84,7315.686a2.672,2.672,0,0,1-.527,1.37,1.112,1.112,0,0,1-.839.325.852.852,0,0,1-.748-.356l-.3,1.531h-.788l.9-4.521h.764l-.071.318a1.04,1.04,0,0,1,.818-.355.835.835,0,0,1,.9.914A3.7,3.7,0,0,1,6146.84,7315.686Zm-1.112-.984c-.469,0-.615.382-.735.984a3.519,3.519,0,0,0-.071.534c0,.195.051.457.394.457.47,0,.616-.388.735-.991a3.356,3.356,0,0,0,.07-.533C6146.122,7314.955,6146.072,7314.7,6145.728,7314.7Z" transform="translate(-6133.627 -7312.785)" fill="#635b5b"/>
          <path id="Path_114" data-name="Path 114" d="M6146.685,7316.823a.624.624,0,0,0-.019.139c0,.121.069.19.241.19h.324l-.133.667h-.431a.715.715,0,0,1-.794-.717,1.216,1.216,0,0,1,.026-.273l.7-3.53h.788Z" transform="translate(-6132.099 -7313.262)" fill="#635b5b"/>
          <path id="Path_115" data-name="Path 115" d="M6149.742,7315.926h-1.979a1.362,1.362,0,0,0-.025.236.509.509,0,0,0,.563.551,1.073,1.073,0,0,0,.788-.335l.413.52a1.861,1.861,0,0,1-1.288.482,1.115,1.115,0,0,1-1.225-1.161c0-1.111.538-2.223,1.681-2.223a1.111,1.111,0,0,1,1.176,1.181A3.691,3.691,0,0,1,6149.742,7315.926Zm-1.117-1.283c-.335,0-.615.218-.763.756h1.213a1.237,1.237,0,0,0,.02-.221C6149.1,7314.83,6148.905,7314.643,6148.625,7314.643Z" transform="translate(-6131.336 -7312.785)" fill="#635b5b"/>
          <path id="Path_116" data-name="Path 116" d="M6149.774,7316.7l-1,.7.4-1.947h.85Z" transform="translate(-6130.112 -7311.792)" fill="#635b5b"/>
          <path id="Path_117" data-name="Path 117" d="M6152.835,7316.065h-.868l-.35,1.753h-.837l.907-4.52h1.606a1.122,1.122,0,0,1,1.213,1.194A1.562,1.562,0,0,1,6152.835,7316.065Zm.319-2.023h-.774l-.26,1.282h.748a.758.758,0,0,0,.794-.761A.464.464,0,0,0,6153.154,7314.042Z" transform="translate(-6128.745 -7313.262)" fill="#635b5b"/>
          <path id="Path_118" data-name="Path 118" d="M6155.207,7314.911a.447.447,0,0,0-.362-.2.725.725,0,0,0-.667.635l-.4,2h-.786l.659-3.308h.761l-.069.325a1.086,1.086,0,0,1,.837-.362.836.836,0,0,1,.7.312Z" transform="translate(-6127.232 -7312.785)" fill="#635b5b"/>
          <path id="Path_119" data-name="Path 119" d="M6157.338,7315.686a2.263,2.263,0,0,1-.591,1.312,1.425,1.425,0,0,1-1.015.383,1.047,1.047,0,0,1-1.123-1.092,3.227,3.227,0,0,1,.069-.6,2.217,2.217,0,0,1,.591-1.308,1.42,1.42,0,0,1,1.015-.381,1.046,1.046,0,0,1,1.118,1.092A3.96,3.96,0,0,1,6157.338,7315.686Zm-1.137-.984a.574.574,0,0,0-.405.165,1.539,1.539,0,0,0-.337.819,2.965,2.965,0,0,0-.071.514c0,.318.172.477.42.477a.573.573,0,0,0,.407-.165,1.5,1.5,0,0,0,.335-.826,2.89,2.89,0,0,0,.072-.507C6156.622,7314.853,6156.45,7314.7,6156.2,7314.7Z" transform="translate(-6126.128 -7312.785)" fill="#635b5b"/>
          <path id="Path_120" data-name="Path 120" d="M6158.663,7314.974a.548.548,0,0,0-.456-.273.627.627,0,0,0-.47.21,1.538,1.538,0,0,0-.351.774,2.451,2.451,0,0,0-.043.424c0,.35.165.566.47.566a.774.774,0,0,0,.577-.281l.438.565a1.594,1.594,0,0,1-1.091.419,1.123,1.123,0,0,1-1.187-1.181,2.877,2.877,0,0,1,.051-.514c.247-1.347,1.009-1.688,1.682-1.688a1.146,1.146,0,0,1,.971.457Z" transform="translate(-6124.801 -7312.785)" fill="#635b5b"/>
          <path id="Path_121" data-name="Path 121" d="M6160.99,7315.926h-1.983a1.722,1.722,0,0,0-.023.236.509.509,0,0,0,.564.551,1.072,1.072,0,0,0,.787-.335l.412.52a1.857,1.857,0,0,1-1.288.482,1.115,1.115,0,0,1-1.225-1.161c0-1.111.541-2.223,1.681-2.223a1.112,1.112,0,0,1,1.176,1.181A3.751,3.751,0,0,1,6160.99,7315.926Zm-1.118-1.283c-.338,0-.616.218-.761.756h1.212a1.387,1.387,0,0,0,.018-.221C6160.341,7314.83,6160.15,7314.643,6159.872,7314.643Z" transform="translate(-6123.651 -7312.785)" fill="#635b5b"/>
          <path id="Path_122" data-name="Path 122" d="M6162.476,7314.879a.873.873,0,0,0-.627-.236c-.4,0-.577.2-.577.4,0,.14.1.215.3.248l.423.071c.592.093.8.4.8.857a1.086,1.086,0,0,1-.354.8,1.69,1.69,0,0,1-1.148.361,1.608,1.608,0,0,1-1.275-.5l.563-.5a.917.917,0,0,0,.763.318c.45,0,.671-.214.671-.413,0-.179-.12-.24-.309-.271l-.433-.072c-.6-.1-.794-.437-.794-.75a1.158,1.158,0,0,1,.337-.824,1.516,1.516,0,0,1,1.1-.381,1.408,1.408,0,0,1,1.1.406Z" transform="translate(-6122.43 -7312.785)" fill="#635b5b"/>
          <path id="Path_123" data-name="Path 123" d="M6164.249,7314.879a.874.874,0,0,0-.628-.236c-.4,0-.577.2-.577.4,0,.14.1.215.3.248l.426.071c.588.093.8.4.8.857a1.082,1.082,0,0,1-.355.8,1.69,1.69,0,0,1-1.149.361,1.611,1.611,0,0,1-1.275-.5l.564-.5a.918.918,0,0,0,.762.318c.45,0,.673-.214.673-.413,0-.179-.121-.24-.312-.271l-.431-.072c-.6-.1-.795-.437-.795-.75a1.158,1.158,0,0,1,.337-.824,1.517,1.517,0,0,1,1.1-.381,1.411,1.411,0,0,1,1.1.406Z" transform="translate(-6121.219 -7312.785)" fill="#635b5b"/>
          <path id="Path_124" data-name="Path 124" d="M6167.664,7316.914l.6.921h-.959l-.249-.388a1.929,1.929,0,0,1-1.211.425,1.093,1.093,0,0,1-1.226-1.124,1.716,1.716,0,0,1,1.06-1.516l-.025-.039a1.389,1.389,0,0,1-.253-.749,1.155,1.155,0,0,1,1.289-1.167.893.893,0,0,1,1.015.945,1.161,1.161,0,0,1-.627.939l-.361.236.551.9a1.6,1.6,0,0,0,.381-.774h.749A2.62,2.62,0,0,1,6167.664,7316.914Zm-1.645-1.123a1,1,0,0,0-.61.843.51.51,0,0,0,.534.535,1.194,1.194,0,0,0,.742-.312Zm.634-1.849a.456.456,0,0,0-.451.5.881.881,0,0,0,.172.431l.2-.126c.223-.14.373-.275.373-.49A.284.284,0,0,0,6166.653,7313.941Z" transform="translate(-6119.285 -7313.276)" fill="#635b5b"/>
          <path id="Path_125" data-name="Path 125" d="M6168.832,7317.819H6168l.908-4.52h.838Z" transform="translate(-6116.979 -7313.262)" fill="#635b5b"/>
          <path id="Path_126" data-name="Path 126" d="M6172.077,7315.278l-.413,2.064h-.789l.406-2.013a1.377,1.377,0,0,0,.027-.217.38.38,0,0,0-.395-.412.679.679,0,0,0-.673.634l-.406,2.007h-.788l.661-3.308h.756l-.058.318a1.168,1.168,0,0,1,.871-.355.835.835,0,0,1,.843.914A1.783,1.783,0,0,1,6172.077,7315.278Z" transform="translate(-6116.261 -7312.785)" fill="#635b5b"/>
          <path id="Path_127" data-name="Path 127" d="M6172.893,7315.078h-.547l-.323,1.626a.584.584,0,0,0-.011.119c0,.133.082.2.252.2h.286l-.134.661h-.4a.721.721,0,0,1-.8-.717,1.263,1.263,0,0,1,.027-.273l.322-1.621h-.337l.122-.6h.337l.2-.991h.789l-.2.991h.544Z" transform="translate(-6114.783 -7313.13)" fill="#635b5b"/>
          <path id="Path_128" data-name="Path 128" d="M6175.137,7315.926h-1.981a1.583,1.583,0,0,0-.025.236.511.511,0,0,0,.566.551,1.069,1.069,0,0,0,.787-.335l.413.52a1.864,1.864,0,0,1-1.29.482,1.116,1.116,0,0,1-1.225-1.161c0-1.111.541-2.223,1.684-2.223a1.111,1.111,0,0,1,1.174,1.181A3.588,3.588,0,0,1,6175.137,7315.926Zm-1.118-1.283c-.337,0-.613.218-.761.756h1.212a1.192,1.192,0,0,0,.019-.221C6174.489,7314.83,6174.3,7314.643,6174.02,7314.643Z" transform="translate(-6113.982 -7312.785)" fill="#635b5b"/>
          <path id="Path_129" data-name="Path 129" d="M6176.858,7317.217a1.536,1.536,0,0,1-1.587,1.376,1.333,1.333,0,0,1-1.1-.452l.546-.477a.66.66,0,0,0,.552.262.809.809,0,0,0,.806-.717l.07-.338a.907.907,0,0,1-.736.33.87.87,0,0,1-.913-.932,4.142,4.142,0,0,1,.082-.674,2.306,2.306,0,0,1,.495-1.27,1.149,1.149,0,0,1,.845-.329.821.821,0,0,1,.75.374l.061-.336h.764Zm-.795-2.516c-.4,0-.581.3-.7.9a2.677,2.677,0,0,0-.056.457c0,.248.1.437.394.437.406,0,.583-.305.7-.9a2.614,2.614,0,0,0,.057-.456C6176.457,7314.866,6176.331,7314.7,6176.063,7314.7Z" transform="translate(-6112.758 -7312.785)" fill="#635b5b"/>
          <path id="Path_130" data-name="Path 130" d="M6178.487,7314.911a.442.442,0,0,0-.362-.2.727.727,0,0,0-.667.635l-.4,2h-.788l.659-3.308h.763l-.07.325a1.087,1.087,0,0,1,.837-.362.84.84,0,0,1,.706.312Z" transform="translate(-6111.324 -7312.785)" fill="#635b5b"/>
          <path id="Path_131" data-name="Path 131" d="M6178.679,7317.814h-.786l.641-3.206h.787Zm.774-3.854h-.805l.127-.653h.812Z" transform="translate(-6110.216 -7313.256)" fill="#635b5b"/>
          <path id="Path_132" data-name="Path 132" d="M6180.709,7315.078h-.545l-.324,1.626a.463.463,0,0,0-.014.119c0,.133.083.2.254.2h.287l-.134.661h-.407a.721.721,0,0,1-.8-.717,1.494,1.494,0,0,1,.026-.273l.324-1.621h-.336l.119-.6h.337l.2-.991h.789l-.2.991h.546Z" transform="translate(-6109.44 -7313.13)" fill="#635b5b"/>
          <path id="Path_133" data-name="Path 133" d="M6181.353,7317.86a1.682,1.682,0,0,1-.272.388,1.034,1.034,0,0,1-.788.292h-.305l.147-.711h.177c.229,0,.329-.108.452-.343l.21-.394-.47-3.073h.78l.242,2.133,1.059-2.133h.833Z" transform="translate(-6108.785 -7312.77)" fill="#635b5b"/>
        </g>
        <g id="Group_58" data-name="Group 58">
          <path id="Path_134" data-name="Path 134" d="M6190.917,7311.81a6.226,6.226,0,0,0-1.935-3.661,9.139,9.139,0,0,0-2.587-1.75c-1.8-.778-3.629-1.469-5.441-2.214a33.956,33.956,0,0,1-3.264-1.425,1.873,1.873,0,0,1-.623-2.958,3.245,3.245,0,0,1,1.179-.793,7.2,7.2,0,0,1,4.262-.143c1.606.353,3.182.846,4.766,1.287.568.159.729.1.934-.448q.768-2.08,1.517-4.168c.188-.527.094-.7-.45-.888-.715-.243-1.437-.474-2.155-.72a20.208,20.208,0,0,0-7.718-1.143,14.08,14.08,0,0,0-4.164.781,7.424,7.424,0,0,0-4.9,4.912,9.452,9.452,0,0,0-.248,4.139,6.734,6.734,0,0,0,.76,2.353,7.921,7.921,0,0,0,3.343,3.036,54.8,54.8,0,0,0,6.259,2.588,12.588,12.588,0,0,1,3.116,1.561,2.069,2.069,0,0,1,.379,3.108,2.719,2.719,0,0,1-1.762.9,13.205,13.205,0,0,1-5.434-.275c-1.6-.382-3.171-.882-4.754-1.333-.53-.151-.711-.081-.894.415q-.76,2.082-1.495,4.175c-.18.513-.078.7.432.873.937.311,1.876.607,2.813.912a25,25,0,0,0,7.544,1.265c.48-.028.958-.062,1.438-.087a12.326,12.326,0,0,0,5.561-1.466,6.8,6.8,0,0,0,3.02-3.376A9.859,9.859,0,0,0,6190.917,7311.81Z" transform="translate(-6115.525 -7292.729)" fill="#635b5b"/>
          <path id="Path_135" data-name="Path 135" d="M6174.531,7315.552c-.15-.408-.333-.5-.749-.379-.554.164-1.109.322-1.656.5a12.1,12.1,0,0,1-5.224.58,5.283,5.283,0,0,1-3.309-1.671,7.524,7.524,0,0,1-1.781-3.494,15.591,15.591,0,0,1-.358-5.009,10.843,10.843,0,0,1,1.177-4.352,5.549,5.549,0,0,1,3.436-2.832,9.22,9.22,0,0,1,4.041-.1,33.177,33.177,0,0,1,3.552.922c.6.166.772.1.964-.492q.676-2.112,1.339-4.229c.146-.458.042-.659-.426-.821s-.957-.319-1.437-.479a18.484,18.484,0,0,0-8.75-.732,11.465,11.465,0,0,0-9.258,7.306,18.182,18.182,0,0,0-1.317,7.188c.034.648.053,1.3.1,1.943a16.1,16.1,0,0,0,1.849,6.579,11.262,11.262,0,0,0,4.787,4.75,15.026,15.026,0,0,0,9.028,1.268,26.309,26.309,0,0,0,5-1.355c.655-.217.727-.361.491-1Q6175.288,7317.6,6174.531,7315.552Z" transform="translate(-6125.607 -7292.743)" fill="#635b5b"/>
          <path id="Path_136" data-name="Path 136" d="M6163.093,7307.416a18.254,18.254,0,0,1-1.395,7.46,11.336,11.336,0,0,1-8.933,7.084,13.824,13.824,0,0,1-7.578-.725,11.093,11.093,0,0,1-5.74-5.126,16.53,16.53,0,0,1-1.887-6.493,21.176,21.176,0,0,1,.516-7.364,12.965,12.965,0,0,1,3.254-6.016,11.183,11.183,0,0,1,5.986-3.182,14.323,14.323,0,0,1,7.571.448,11.122,11.122,0,0,1,6.5,5.84,16.355,16.355,0,0,1,1.606,6.131C6163.04,7306.121,6163.061,7306.768,6163.093,7307.416Zm-19.06.034c.067.8.1,1.606.209,2.4a9.434,9.434,0,0,0,1.473,4.063,5.55,5.55,0,0,0,7.887,1.328,6.992,6.992,0,0,0,2.374-3.822,15.523,15.523,0,0,0,.435-5.464,10.642,10.642,0,0,0-1.185-4.383,5.665,5.665,0,0,0-10.258.761A13.418,13.418,0,0,0,6144.033,7307.45Z" transform="translate(-6137.448 -7292.738)" fill="#635b5b"/>
        </g>
      </g>
    </g>
  </g>
</svg>
