<svg xmlns="http://www.w3.org/2000/svg" width="26.632" height="17.763" viewBox="0 0 26.632 17.763">
  <path id="Youtube" d="M26.073,8.78a3.091,3.091,0,0,0-.85-1.409,3.384,3.384,0,0,0-1.485-.823C21.655,6,13.307,6,13.307,6A85.014,85.014,0,0,0,2.889,6.52,3.506,3.506,0,0,0,1.4,7.363,3.214,3.214,0,0,0,.541,8.779,32.276,32.276,0,0,0,0,14.874a32.218,32.218,0,0,0,.541,6.1,3.136,3.136,0,0,0,.86,1.408,3.435,3.435,0,0,0,1.488.824c2.111.548,10.418.548,10.418.548a85.21,85.21,0,0,0,10.432-.521,3.384,3.384,0,0,0,1.485-.823A3.084,3.084,0,0,0,26.072,21a31.488,31.488,0,0,0,.556-6.1,29.49,29.49,0,0,0-.555-6.121Zm-15.42,9.894v-7.6l6.946,3.8-6.946,3.8Z" transform="translate(0.001 -5.993)" fill="#666"/>
</svg>
