<?xml version="1.0" encoding="UTF-8"?>
<svg id="Group_8849" xmlns="http://www.w3.org/2000/svg" xmlns:xlink="http://www.w3.org/1999/xlink" version="1.1" viewBox="0 0 297.1 70.6">
  <!-- Generator: Adobe Illustrator 29.3.1, SVG Export Plug-In . SVG Version: 2.1.0 Build 151)  -->
  <defs>
    <style>
      .st0 {
        fill: none;
      }

      .st1 {
        fill: url(#linear-gradient);
      }

      .st2 {
        clip-path: url(#clippath-1);
      }

      .st3 {
        clip-path: url(#clippath-3);
      }

      .st4 {
        clip-path: url(#clippath-4);
      }

      .st5 {
        clip-path: url(#clippath-2);
      }

      .st6 {
        clip-path: url(#clippath-5);
      }

      .st7 {
        fill: #144069;
      }

      .st8 {
        fill: #29abe2;
      }

      .st9 {
        fill: #2478a6;
      }

      .st10 {
        clip-path: url(#clippath);
      }
    </style>
    <clipPath id="clippath">
      <rect class="st0" width="296.4" height="70.6"/>
    </clipPath>
    <clipPath id="clippath-1">
      <path class="st0" d="M19.3,29.9c0,2.8.9,5.5,2.5,7.8h0l9.2,12,3.9,5.5,4-5.2-4.4-5.7-5.2-6.6c-1.5-2-2.5-4.2-2.9-6.6h0c0-.4,0-.8,0-1.2,0-4.5,4-8.1,8.9-8.1s8.9,3.6,8.9,8.1c0,1-.2,1.9-.5,2.8-.7,1.8-1.7,3.5-3,5l-1.6,2.1c-.9,1.2-1.9,2.6-3,4.1l.3.4,3.6,4.6,8.1-10.4.4-.5h0c0-.1.1-.2.2-.3,1.6-2.3,2.5-5,2.5-7.8,0-8-7.1-14.5-15.9-14.5s-15.8,6.5-15.8,14.4Z"/>
    </clipPath>
    <clipPath id="clippath-2">
      <path class="st0" d="M48.5,37.7c0,0-.1.2-.2.3l.2-.3h0Z"/>
    </clipPath>
    <linearGradient id="linear-gradient" x1="-870.2" y1="-2256.7" x2="-869.4" y2="-2256.7" gradientTransform="translate(308.1 -722.7) scale(.4 -.3)" gradientUnits="userSpaceOnUse">
      <stop offset="0" stop-color="#4376a9"/>
      <stop offset="0" stop-color="#4072a4"/>
      <stop offset=".2" stop-color="#2d5782"/>
      <stop offset=".4" stop-color="#1e4268"/>
      <stop offset=".6" stop-color="#133355"/>
      <stop offset=".8" stop-color="#0d2949"/>
      <stop offset="1" stop-color="#0b2746"/>
    </linearGradient>
    <clipPath id="clippath-3">
      <path class="st0" d="M7.3,19.8l1.1.7c5.6-9.1,14.8-14.1,25.9-14.1s16.8,2.8,22.3,9.3c-1,1.4-.7,3.3.6,4.3s3.3.7,4.3-.6c1-1.4.7-3.3-.6-4.3-1-.7-2.3-.8-3.3-.2-5.8-6.8-13-9.7-23.3-9.7S13.1,10.3,7.3,19.8h0Z"/>
    </clipPath>
    <clipPath id="clippath-4">
      <path class="st0" d="M5,49.4c-1.3,1.1-1.4,3.1-.3,4.4.8.9,2.1,1.3,3.2,1,9.9,14.6,29.7,18.3,44.2,8.5,5.1-3.4,9.1-8.3,11.5-14h-1.4c-6.8,15.4-24.9,22.4-40.3,15.5-5.2-2.3-9.6-6-12.8-10.7,1.3-1.1,1.5-3.1.4-4.4s-3.1-1.5-4.4-.4c0,0,0,0,0,0h0Z"/>
    </clipPath>
    <clipPath id="clippath-5">
      <rect class="st0" width="296.4" height="70.6"/>
    </clipPath>
  </defs>
  <g id="Group_8838">
    <g class="st10">
      <g id="Group_8837">
        <path id="Path_84038" class="st9" d="M40.1,30.4c0,2.7-2.2,5-5,5s-5-2.2-5-5,2.2-5,5-5,5,2.2,5,5"/>
        <path id="Path_84039" class="st8" d="M50.3,39.8c.2-.2.3-.4.5-.6l-.5.6Z"/>
      </g>
    </g>
  </g>
  <g id="Group_8840">
    <g class="st2">
      <g id="Group_8839">
        <rect id="Rectangle_5282" class="st9" x="10.4" y="9.9" width="49.5" height="50.8" transform="translate(-14.3 29.3) rotate(-38.2)"/>
      </g>
    </g>
  </g>
  <g id="Group_8842">
    <g class="st5">
      <g id="Group_8841">
        <rect id="Rectangle_5283" class="st1" x="48.3" y="37.6" width=".4" height=".3" transform="translate(-9.8 57.3) rotate(-56.5)"/>
      </g>
    </g>
  </g>
  <g id="Group_8844">
    <g class="st3">
      <g id="Group_8843">
        <rect id="Rectangle_5284" class="st9" x="7.3" y="5" width="54.9" height="15.6"/>
      </g>
    </g>
  </g>
  <g id="Group_8846">
    <g class="st4">
      <g id="Group_8845">
        <rect id="Rectangle_5285" class="st9" x="3.9" y="48.6" width="59.7" height="20.1"/>
      </g>
    </g>
  </g>
  <g id="Group_8848">
    <g class="st6">
      <g id="Group_8847">
        <path id="Path_84044" class="st9" d="M42.3,48c3.1.5,6.6,3,5.4,6.6-1.2,3.1-4.5,4.7-7.5,5.5-3.9,1-8.1.9-11.9-.2-2.5-.8-5.1-2.2-6.4-4.6-2-4.2,2.4-7.1,6.1-7.5-6.4,3.6-5.8,7.3,1.2,9.1,2.5.6,5.2.8,7.8.6,6.3-.4,13.7-4,5.4-9.3"/>
        <path id="Path_84045" class="st7" d="M120.5,50.6v1.1c-.8.4-1.6.6-2.5.6-.7,0-1.3-.1-1.9-.5-.5-.3-1-.7-1.3-1.3-.3-.5-.5-1.1-.5-1.8,0-1,.4-1.9,1.1-2.5.7-.7,1.6-1,2.6-1,.8,0,1.6.2,2.4.6v1c-.7-.4-1.5-.7-2.3-.7-.7,0-1.4.2-2,.7-.5.5-.8,1.2-.8,1.9,0,.7.3,1.4.8,1.9.5.5,1.2.8,2,.7.9,0,1.7-.3,2.4-.8h0ZM122.1,52.2v-6.8h1.7c.6,0,1.2.2,1.6.5.4.3.6.9.6,1.4,0,.8-.4,1.4-1.2,1.7.2.2.5.4.6.6.3.4.6.8.9,1.3.2.4.4.7.6.9l.4.5h-1.2l-.3-.4s0,0,0,0l-.2-.3-.3-.5-.3-.5c-.2-.2-.4-.5-.6-.7-.1-.1-.3-.3-.5-.4-.2,0-.5-.1-.7-.1h-.2v3h-1ZM123.4,46.2h-.3v2.2h.4c.3,0,.7,0,1-.1.2,0,.3-.2.4-.4.1-.2.2-.4.1-.6,0-.2,0-.4-.2-.6-.1-.2-.3-.3-.5-.4-.3,0-.7-.1-1-.1h0ZM128.4,45.3h3.9v.9h-2.9v2.1h2.8v.9h-2.8v2.1h3v.9h-4v-6.8ZM142.5,45.3h1l-2.8,6.9h-.2l-2.2-5.6-2.3,5.6h-.2l-2.8-6.9h1l1.9,4.7,1.9-4.7h.9l1.9,4.7,1.9-4.7ZM153.2,45.3h.9v6.8h-1v-5.3l-2.1,2.6h-.2l-2.1-2.6v5.3h-1v-6.8h.9l2.3,2.8,2.3-2.8ZM158.1,45.3h.7l3.1,6.9h-1l-.9-2h-2.9l-.9,2h-1l2.9-6.9ZM159.5,49.3l-1.1-2.5-1,2.5h2.1ZM168.3,45.3h.9v6.8h-.8l-4.6-5.3v5.3h-.9v-6.8h.8l4.6,5.3v-5.3ZM173.3,45.3h.7l3.1,6.9h-1l-.9-2h-2.9l-.9,2h-1l2.9-6.9ZM174.7,49.3l-1.1-2.5-1,2.5h2.1ZM181,48.8h2.3v2.9c-.8.4-1.6.5-2.5.5-1,0-2-.3-2.7-1-.7-.6-1-1.5-1-2.4,0-1,.4-1.9,1.1-2.6.7-.7,1.7-1,2.6-1,.4,0,.7,0,1.1.1.4.1.9.3,1.3.5v1c-.7-.4-1.6-.7-2.4-.7-.7,0-1.4.3-1.9.8-1,1.1-1,2.7,0,3.8.5.5,1.2.8,2,.7.5,0,1-.1,1.4-.3h0v-1.5h-1.3v-.9ZM185.1,45.3h3.9v.9h-2.9v2.1h2.8v.9h-2.8v2.1h3v.9h-4v-6.8ZM195.8,45.3h.9v6.8h-1v-5.3l-2.1,2.6h-.2l-2.1-2.6v5.3h-1v-6.8h.9l2.3,2.8,2.3-2.8ZM198.6,45.3h3.9v.9h-2.9v2.1h2.8v.9h-2.8v2.1h3v.9h-4v-6.8ZM209.3,45.3h.9v6.8h-.8l-4.6-5.3v5.3h-.9v-6.8h.8l4.6,5.3v-5.3ZM211.5,45.3h5.7v.9h-2.4v6h-1v-6h-2.3v-.9ZM223.3,49.3l-.8-.5c-.4-.2-.7-.5-1-.8-.2-.3-.3-.6-.3-1,0-.5.2-1,.6-1.3.4-.3.9-.5,1.5-.5.6,0,1.1.2,1.6.5v1.1c-.4-.4-1-.7-1.6-.7-.3,0-.6,0-.8.2-.2.1-.3.3-.3.6,0,.2,0,.4.2.6.2.2.5.4.7.6l.8.4c.7.3,1.2,1.1,1.2,1.9,0,.5-.2,1-.5,1.3-.4.4-.9.5-1.4.5-.7,0-1.3-.2-1.8-.6v-1.2c.4.6,1.1,1,1.8,1,.3,0,.6,0,.8-.3.2-.2.3-.4.3-.6,0-.4-.3-.8-.9-1.2M230.6,45.3h1.2l-2.5,3.2v3.6h-1v-3.6l-2.5-3.2h1.2l1.8,2.4,1.8-2.4ZM234.2,49.3l-.7-.5c-.4-.2-.7-.5-1-.8-.2-.3-.3-.6-.3-1,0-.5.2-1,.6-1.3.4-.3.9-.5,1.5-.5.6,0,1.1.2,1.6.5v1.1c-.4-.4-1-.7-1.6-.7-.3,0-.6,0-.8.2-.2.1-.3.3-.3.6,0,.2,0,.4.2.6.2.2.5.4.7.6l.8.4c.7.3,1.2,1.1,1.2,1.9,0,.5-.2,1-.5,1.3-.4.4-.9.5-1.4.5-.7,0-1.3-.2-1.8-.6v-1.2c.4.6,1.1,1,1.8,1,.3,0,.6,0,.8-.3.2-.2.3-.4.3-.6,0-.4-.3-.8-.9-1.2h0ZM236.8,45.3h5.7v.9h-2.4v6h-1v-6h-2.3v-.9ZM243.8,45.3h3.9v.9h-2.9v2.1h2.8v.9h-2.8v2.1h3v.9h-4v-6.8ZM254.6,45.3h.9v6.8h-1v-5.3l-2.1,2.6h-.2l-2.1-2.6v5.3h-1v-6.8h.9l2.3,2.8,2.3-2.8Z"/>
        <path id="Path_84046" class="st9" d="M83.1,38.1c0,1.5-.1,3-.4,4.4-.3,1.2-.9,2.3-1.9,3-1.3.9-2.8,1.3-4.3,1.2-.7,0-1.4,0-2.1-.2l-.9-4.7c.6,0,1.2,0,1.8-.1.4,0,.8-.2,1.1-.4.3-.3.5-.7.6-1.1.1-1.1.2-2.1.1-3.2v-16h5.9v17.1ZM108.9,30.7c0,1.8-.4,3.5-1.3,5-.9,1.6-2.2,2.8-3.8,3.7-1.9,1-4,1.4-6.1,1.4-2.1,0-4.2-.4-6.1-1.4-1.6-.8-2.9-2.1-3.7-3.7-1.6-3.1-1.6-6.8,0-9.8.9-1.6,2.2-2.9,3.7-3.7,1.9-1,4-1.5,6.1-1.4,1.6,0,3.3.2,4.8.8,1.3.5,2.5,1.2,3.5,2.2.9.9,1.6,2,2.1,3.2.5,1.2.7,2.5.7,3.8h0ZM102.9,30.7c0-.7-.1-1.4-.3-2-.2-.6-.5-1.1-1-1.6-.5-.5-1-.8-1.6-1-.7-.3-1.4-.4-2.2-.4-2.8-.1-5.1,2-5.2,4.8s2,5.1,4.8,5.2c.2,0,.3,0,.5,0,1,0,1.9-.2,2.8-.6.7-.4,1.3-1,1.7-1.8.4-.8.6-1.7.6-2.6M132.9,31.7c0,1.5-.3,2.9-.9,4.3-.6,1.1-1.4,2.1-2.5,2.8-1,.7-2.1,1.2-3.3,1.5-1.2.3-2.4.4-3.6.5-1.6,0-3.3-.3-4.8-.8-1.6-.6-2.9-1.6-3.9-2.9-1.1-1.5-1.7-3.4-1.6-5.3v-10.8h5.9v9.3c0,1.1.2,2.2.6,3.2.3.8.8,1.4,1.5,1.8,1.4.8,3.2.8,4.6,0,.7-.4,1.2-1.1,1.6-1.8.4-1,.6-2.1.6-3.2v-9.3h5.9v10.8ZM156.5,40.5h-6.3l-1.5-3.5c-.4-1-.9-1.9-1.5-2.8-.3-.5-.8-.9-1.3-1.1-.5-.2-1.1-.3-1.7-.3h-.7v7.6h-5.9v-19.5h10c1.4,0,2.8.3,4,1,1,.6,1.7,1.4,2.2,2.4.4.8.7,1.7.7,2.7,0,.9-.2,1.7-.6,2.5-.3.6-.7,1.1-1.2,1.5-.5.3-.9.6-1.4.9.6.3,1.1.8,1.6,1.3.7,1,1.2,2,1.7,3.1l2,4.2ZM148.5,27.1c0-.7-.3-1.5-.9-1.9-.9-.4-1.9-.6-2.9-.5h-1.2v4.7h1.3c1,0,2,0,3-.5.6-.4.9-1.1.8-1.8h0ZM180.4,40.5h-5.2l-10.1-10.9v10.9h-5.8v-19.5h5.2l10.1,10.8v-10.8h5.9v19.5ZM200,40.5h-14.7v-19.5h14.5v3.9h-8.6v3.6h8.2v3.9h-8.2v4.2h8.8v3.9ZM223,21l-7.6,10.6v8.9h-5.9v-8.8l-7.8-10.7h6.1l4.5,6.1,4.5-6.1h6.2Z"/>
        <path id="Path_84047" class="st7" d="M233.8,29.5l7.5-8.5h2l-8.5,9.6,8.9,10.1h-2l-8-9-8,9h-2l8.9-10.1-8.5-9.6h2l7.5,8.5ZM245.9,21.1h5.4c1.7-.1,3.4.4,4.8,1.4,1.1.9,1.7,2.4,1.7,3.8,0,1.5-.6,2.9-1.7,3.9-1.4,1-3.1,1.5-4.9,1.4h-3.8v9.2h-1.5v-19.7ZM247.5,22.3v7.9h3.7c1.3,0,2.7-.3,3.7-1,1.6-1.5,1.7-4,.2-5.6,0,0-.1-.1-.2-.2-1-.8-2.3-1.2-3.6-1.1h-3.8ZM260.7,21.1h5.1c1.7-.1,3.4.4,4.8,1.4,1.1.9,1.7,2.3,1.7,3.7,0,2.3-1.2,3.9-3.7,4.8,1.1.8,2,1.8,2.6,3l4.5,6.8h-1.8l-3.4-5.4c-.7-1.3-1.6-2.4-2.7-3.4-.8-.5-1.8-.7-2.8-.7h-2.7v9.4h-1.5v-19.7ZM262.2,22.3v7.7h3.3c1.3,0,2.7-.3,3.8-1,1.6-1.3,1.8-3.7.4-5.2-.1-.2-.3-.3-.5-.5-1.1-.7-2.5-1.1-3.8-1h-3.2ZM285.9,20.8c2.8,0,5.4,1,7.4,2.9,4,3.8,4.1,10.1.2,14.1,0,0-.2.2-.2.2-4.1,3.9-10.6,3.9-14.8,0-4-3.8-4-10.2-.2-14.1,0,0,.1-.1.2-.2,2-1.9,4.6-3,7.4-2.9h0ZM286,39.6c2.3,0,4.6-.9,6.2-2.5,3.4-3.4,3.4-8.9,0-12.3-1.6-1.7-3.9-2.6-6.2-2.5-2.3,0-4.6.9-6.2,2.5-3.4,3.4-3.4,8.9,0,12.3,0,0,0,0,0,0,1.7,1.7,3.9,2.6,6.2,2.5"/>
      </g>
    </g>
  </g>
</svg>